<svg width="32" height="32" viewBox="0 0 32 32" fill="none" xmlns="http://www.w3.org/2000/svg">
<path fill-rule="evenodd" clip-rule="evenodd" d="M28 9V28C28 29.0609 27.5786 30.0783 26.8284 30.8284C26.0783 31.5786 25.0609 32 24 32H20V30H24C24.5304 30 25.0391 29.7893 25.4142 29.4142C25.7893 29.0391 26 28.5304 26 28V9H22C21.2044 9 20.4413 8.68393 19.8787 8.12132C19.3161 7.55871 19 6.79565 19 6V2H8C7.46957 2 6.96086 2.21071 6.58579 2.58579C6.21071 2.96086 6 3.46957 6 4V22H4V4C4 2.93913 4.42143 1.92172 5.17157 1.17157C5.92172 0.421427 6.93913 0 8 0L19 0L28 9ZM3.856 31.698V25.024H6.128V23.7H0V25.024H2.268V31.698H3.856ZM13.234 23.7H11.446L9.8 26.578H9.73L8.066 23.7H6.202L8.658 27.666L6.178 31.698H7.902L9.608 28.868H9.678L11.378 31.698H13.192L10.686 27.714L13.234 23.7ZM17.094 25.024V31.698H15.506V25.024H13.238V23.7H19.366V25.024H17.092H17.094Z" fill="#25A338"/>
</svg>
