<svg width="54" height="54" viewBox="0 0 54 54" fill="none" xmlns="http://www.w3.org/2000/svg">
<path d="M31.5 4.5H13.5C12.3065 4.5 11.1619 4.97411 10.318 5.81802C9.47411 6.66193 9 7.80653 9 9V45C9 47.4975 11.0025 49.5 13.5 49.5H40.5C42.9975 49.5 45 47.4975 45 45V18L31.5 4.5ZM40.5 45H13.5V9H29.25V20.25H40.5V45ZM33.75 29.25C33.75 33.5025 28.6875 33.9075 28.6875 37.71H25.3125C25.3125 32.22 30.375 32.625 30.375 29.25C30.375 27.405 28.8675 25.875 27 25.875C25.1325 25.875 23.625 27.405 23.625 29.25H20.25C20.25 25.5375 23.265 22.5 27 22.5C30.735 22.5 33.75 25.5375 33.75 29.25ZM28.6875 39.375V42.75H25.3125V39.375H28.6875Z" fill="#1A1A1A"/>
</svg>
